HIERARCHY
ROOT Hips
{
    OFFSET   0.000000   0.000000   0.000000
    CHANNELS 6 Xposition Yposition Zposition Zrotation Xrotation Yrotation
    JOINT Chest
    {
        OFFSET   0.000000   8.007240   0.000000
        CHANNELS 3 Zrotation Xrotation Yrotation
        JOINT Chest2
        {
            OFFSET   0.000000  22.077100   0.000000
            CHANNELS 3 Zrotation Xrotation Yrotation
            JOINT Neck
            {
                OFFSET   0.000000  23.254800   0.000000
                CHANNELS 3 Zrotation Xrotation Yrotation
                JOINT Head
                {
                    OFFSET   0.000000  14.370000   1.956600
                    CHANNELS 3 Zrotation Xrotation Yrotation
                    End Site
                    {
                        OFFSET   0.000000  19.566000   0.000000
                    }
                }
            }
            JOINT LeftCollar
            {
                OFFSET   3.911900  19.017000  -0.467064
                CHANNELS 3 Zrotation Xrotation Yrotation
                JOINT LeftShoulder
                {
                    OFFSET  10.383700   0.000000   0.000000
                    CHANNELS 3 Zrotation Xrotation Yrotation
                    JOINT LeftElbow
                    {
                        OFFSET  26.662100   0.001476   0.000517
                        CHANNELS 3 Zrotation Xrotation Yrotation
                        JOINT LeftWrist
                        {
                            OFFSET  28.869000  -0.000025  -0.000106
                            CHANNELS 3 Zrotation Xrotation Yrotation
                            JOINT LeftFinger0
                            {
                                OFFSET   2.044660  -2.323460   3.252850
                                CHANNELS 3 Zrotation Xrotation Yrotation
                                JOINT LeftFinger01
                                {
                                    OFFSET   3.088130   0.000000   0.000000
                                    CHANNELS 3 Zrotation Xrotation Yrotation
                                    JOINT LeftFinger02
                                    {
                                        OFFSET   2.639460   0.000000   0.000000
                                        CHANNELS 3 Zrotation Xrotation Yrotation
                                        End Site
                                        {
                                            OFFSET   2.582190   0.000000   0.000000
                                        }
                                    }
                                }
                            }
                            JOINT LeftFinger1
                            {
                                OFFSET   8.364480   0.000000   3.252850
                                CHANNELS 3 Zrotation Xrotation Yrotation
                                JOINT LeftFinger11
                                {
                                    OFFSET   4.646930   0.000000   0.000000
                                    CHANNELS 3 Zrotation Xrotation Yrotation
                                    JOINT LeftFinger12
                                    {
                                        OFFSET   2.323460   0.000000   0.000000
                                        CHANNELS 3 Zrotation Xrotation Yrotation
                                        End Site
                                        {
                                            OFFSET   2.273050   0.000000   0.000000
                                        }
                                    }
                                }
                            }
                            JOINT LeftFinger2
                            {
                                OFFSET   8.364490   0.000015   1.078090
                                CHANNELS 3 Zrotation Xrotation Yrotation
                                JOINT LeftFinger21
                                {
                                    OFFSET   5.111620   0.000000   0.000000
                                    CHANNELS 3 Zrotation Xrotation Yrotation
                                    JOINT LeftFinger22
                                    {
                                        OFFSET   2.788160   0.000016   0.000000
                                        CHANNELS 3 Zrotation Xrotation Yrotation
                                        End Site
                                        {
                                            OFFSET   2.727660   0.000000   0.000000
                                        }
                                    }
                                }
                            }
                            JOINT LeftFinger3
                            {
                                OFFSET   7.899780   0.000017  -1.078090
                                CHANNELS 3 Zrotation Xrotation Yrotation
                                JOINT LeftFinger31
                                {
                                    OFFSET   4.646930   0.000000   0.000000
                                    CHANNELS 3 Zrotation Xrotation Yrotation
                                    JOINT LeftFinger32
                                    {
                                        OFFSET   2.323470   0.000000   0.000000
                                        CHANNELS 3 Zrotation Xrotation Yrotation
                                        End Site
                                        {
                                            OFFSET   2.273050   0.000000   0.000000
                                        }
                                    }
                                }
                            }
                            JOINT LeftFinger4
                            {
                                OFFSET   7.435090   0.000000  -3.252850
                                CHANNELS 3 Zrotation Xrotation Yrotation
                                JOINT LeftFinger41
                                {
                                    OFFSET   3.717550   0.000000   0.000000
                                    CHANNELS 3 Zrotation Xrotation Yrotation
                                    JOINT LeftFinger42
                                    {
                                        OFFSET   1.858770   0.000000   0.000000
                                        CHANNELS 3 Zrotation Xrotation Yrotation
                                        End Site
                                        {
                                            OFFSET   1.818440   0.000000   0.000000
                                        }
                                    }
                                }
                            }
                        }
                    }
                }
            }
            JOINT RightCollar
            {
                OFFSET  -3.911900  19.017000  -0.467063
                CHANNELS 3 Zrotation Xrotation Yrotation
                JOINT RightShoulder
                {
                    OFFSET -10.383700   0.000019   0.000000
                    CHANNELS 3 Zrotation Xrotation Yrotation
                    JOINT RightElbow
                    {
                        OFFSET -26.662100   0.001175   0.000102
                        CHANNELS 3 Zrotation Xrotation Yrotation
                        JOINT RightWrist
                        {
                            OFFSET -28.869000   0.000016  -0.000079
                            CHANNELS 3 Zrotation Xrotation Yrotation
                            JOINT RightFinger0
                            {
                                OFFSET  -2.044660  -2.323490   3.252850
                                CHANNELS 3 Zrotation Xrotation Yrotation
                                JOINT RightFinger01
                                {
                                    OFFSET  -3.088140   0.000000   0.000000
                                    CHANNELS 3 Zrotation Xrotation Yrotation
                                    JOINT RightFinger02
                                    {
                                        OFFSET  -2.639460   0.000000   0.000000
                                        CHANNELS 3 Zrotation Xrotation Yrotation
                                        End Site
                                        {
                                            OFFSET  -2.582190   0.000000   0.000000
                                        }
                                    }
                                }
                            }
                            JOINT RightFinger1
                            {
                                OFFSET  -8.364480   0.000000   3.252850
                                CHANNELS 3 Zrotation Xrotation Yrotation
                                JOINT RightFinger11
                                {
                                    OFFSET  -4.646930   0.000000   0.000000
                                    CHANNELS 3 Zrotation Xrotation Yrotation
                                    JOINT RightFinger12
                                    {
                                        OFFSET  -2.323470   0.000000   0.000000
                                        CHANNELS 3 Zrotation Xrotation Yrotation
                                        End Site
                                        {
                                            OFFSET  -2.273050   0.000000   0.000000
                                        }
                                    }
                                }
                            }
                            JOINT RightFinger2
                            {
                                OFFSET  -8.364480   0.000000   1.078090
                                CHANNELS 3 Zrotation Xrotation Yrotation
                                JOINT RightFinger21
                                {
                                    OFFSET  -5.111620   0.000000   0.000000
                                    CHANNELS 3 Zrotation Xrotation Yrotation
                                    JOINT RightFinger22
                                    {
                                        OFFSET  -2.788160   0.000000   0.000000
                                        CHANNELS 3 Zrotation Xrotation Yrotation
                                        End Site
                                        {
                                            OFFSET  -2.727660   0.000000   0.000000
                                        }
                                    }
                                }
                            }
                            JOINT RightFinger3
                            {
                                OFFSET  -7.899780   0.000000  -1.078090
                                CHANNELS 3 Zrotation Xrotation Yrotation
                                JOINT RightFinger31
                                {
                                    OFFSET  -4.646930   0.000000   0.000000
                                    CHANNELS 3 Zrotation Xrotation Yrotation
                                    JOINT RightFinger32
                                    {
                                        OFFSET  -2.323470   0.000000   0.000000
                                        CHANNELS 3 Zrotation Xrotation Yrotation
                                        End Site
                                        {
                                            OFFSET  -2.273050   0.000000   0.000000
                                        }
                                    }
                                }
                            }
                            JOINT RightFinger4
                            {
                                OFFSET  -7.435090   0.000000  -3.252850
                                CHANNELS 3 Zrotation Xrotation Yrotation
                                JOINT RightFinger41
                                {
                                    OFFSET  -3.717550   0.000000   0.000000
                                    CHANNELS 3 Zrotation Xrotation Yrotation
                                    JOINT RightFinger42
                                    {
                                        OFFSET  -1.858770   0.000000   0.000000
                                        CHANNELS 3 Zrotation Xrotation Yrotation
                                        End Site
                                        {
                                            OFFSET  -1.818440   0.000000   0.000000
                                        }
                                    }
                                }
                            }
                        }
                    }
                }
            }
        }
    }
    JOINT LeftHip
    {
        OFFSET   9.783040   0.000000   0.000000
        CHANNELS 3 Zrotation Xrotation Yrotation
        JOINT LeftKnee
        {
            OFFSET   0.000032 -41.789100  -0.002222
            CHANNELS 3 Zrotation Xrotation Yrotation
            JOINT LeftAnkle
            {
                OFFSET   0.000087 -41.133200  -0.000135
                CHANNELS 3 Zrotation Xrotation Yrotation
                JOINT LeftToe
                {
                    OFFSET   0.000000  -6.358960  14.674500
                    CHANNELS 3 Zrotation Xrotation Yrotation
                    End Site
                    {
                        OFFSET   0.000000   0.000000   3.913200
                    }
                }
            }
        }
    }
    JOINT RightHip
    {
        OFFSET  -9.783040   0.000000   0.000000
        CHANNELS 3 Zrotation Xrotation Yrotation
        JOINT RightKnee
        {
            OFFSET   0.000047 -41.789100  -0.000896
            CHANNELS 3 Zrotation Xrotation Yrotation
            JOINT RightAnkle
            {
                OFFSET  -0.000117 -41.133300  -0.000248
                CHANNELS 3 Zrotation Xrotation Yrotation
                JOINT RightToe
                {
                    OFFSET   0.000000  -6.358970  14.674500
                    CHANNELS 3 Zrotation Xrotation Yrotation
                    End Site
                    {
                        OFFSET   0.000000   0.000000   3.913200
                    }
                }
            }
        }
    }
}
MOTION
Frames: 6
Frame Time:   0.016667
 -0.130540  89.507300  -2.267970  -1.065930  -2.147820   0.211816   1.037920   3.022700  -0.358601   2.099180   6.038330  -0.773678  -2.350590  -0.599422  -0.019304  -3.862910  -1.209530   8.395460  -5.457160   0.902849  10.364000 -77.897500   8.323700  -1.089210  -0.402232   3.242730 -13.015300   5.640480  -3.995200  -4.076210  36.970000  27.567600 -52.691700 -32.546600  -0.005876   0.011716 -11.274900  -0.002933   0.002320 -29.276700  -1.424530   2.538990 -23.979500  -0.001551  -0.002235 -16.782300   0.005007  -0.001820 -28.512900  -3.877860   7.093050 -40.505000  -0.001854  -0.000802 -26.976300   0.010469  -0.000919 -27.404500  -3.743600   7.167160 -29.889200   0.008043   0.000702 -19.906200   0.001901   0.000361 -28.401000  -3.858180   7.094450 -42.960100  -0.001806   0.000488 -28.611400   0.002235  -0.001818   6.332410   3.503600   9.245390  70.657700   0.332998  -2.165900   3.300470  -0.414618  19.419400 -14.572800   0.115558   4.063300 -52.411800  49.005700  96.955800  21.519500   0.000175  -0.005374   5.759780   0.000257  -0.005769  32.308000   1.148830   1.820150  26.448600  -0.001721   0.007433  18.514000  -0.001873   0.006369  28.568800  -2.303110  -4.221090  38.209400  -0.003122  -0.012398  25.447400   0.000425   0.002760  28.688400  -2.311960  -4.216260  41.036000  -0.002905   0.001183  27.330000  -0.002969  -0.004524  34.662600  -3.031460  -4.374270  52.167500  -0.007340  -0.004626  34.743500   0.000405   0.002353   3.814100   4.129130   0.558126   0.022705   0.404613  14.216100  -3.347630  -2.867480  -0.187187  -0.000000   0.000000  -0.000000  -1.426090   3.991420  -2.523380   1.493290   0.397727 -12.565800   0.666569  -1.957730  -1.064840  -0.000000   0.000000   0.000000
 -0.123720  89.507100  -2.267990  -1.064420  -2.172800   0.216807   1.037870   3.036840  -0.357072   2.099100   6.066690  -0.770996  -2.341280  -0.586256  -0.019312  -3.847970  -1.182770   8.361560  -5.453860   0.886131  10.347700 -77.921100   8.324200  -1.100730  -0.403432   3.239740 -13.015000   5.633520  -4.003170  -4.076170  36.968700  27.579100 -52.676800 -32.551200  -0.006111   0.011783 -11.276500  -0.003042   0.002351 -29.279600  -1.431180   2.550520 -23.982100  -0.001557  -0.002252 -16.785600   0.005002  -0.001833 -28.512900  -3.877840   7.093040 -40.505700  -0.001872  -0.000818 -26.976800   0.010464  -0.000928 -27.404400  -3.743580   7.167150 -29.879400   0.008041   0.000708 -19.899700   0.001892   0.000362 -28.392500  -3.858180   7.094400 -42.948600  -0.001820   0.000475 -28.603100   0.002213  -0.001794   6.336190   3.447430   9.249330  70.601800   0.306307  -2.252000   3.261310  -0.363407  19.707600 -14.367800  -0.000934   3.924700 -52.176600  48.924000  96.769000  21.608600   0.000169  -0.005224   5.804300   0.000305  -0.005794  32.290300   1.149260   1.820480  26.434700  -0.001724   0.007431  18.504300  -0.001874   0.006364  28.553300  -2.328570  -4.271340  37.988800  -0.003115  -0.012439  25.300500   0.000430   0.002753  28.681700  -2.338320  -4.266030  40.843100  -0.002903   0.001177  27.201500  -0.002965  -0.004552  34.588100  -3.059730  -4.430360  52.058400  -0.007334  -0.004646  34.670800   0.000393   0.002349   3.804090   4.154700   0.550844   0.026014   0.404896  14.221400  -3.342130  -2.868290  -0.190490   0.000000   0.000000  -0.000000  -1.426930   4.026500  -2.532790   1.493670   0.379688 -12.571200   0.667184  -1.950450  -1.054470  -0.000000   0.000000   0.000000
 -0.112185  89.506900  -2.268050  -1.061090  -2.218810   0.225724   1.037890   3.063620  -0.355547   2.099350   6.120230  -0.768350  -2.324970  -0.573090  -0.019332  -3.820790  -1.156000   8.327660  -5.450560   0.869411  10.331500 -77.962900   8.327910  -1.127220  -0.406031   3.230720 -13.014600   5.626570  -4.011140  -4.076130  36.979600  27.599400 -52.667100 -32.560000  -0.006503   0.011926 -11.280000  -0.003229   0.002408 -29.290300  -1.441840   2.568360 -23.991300  -0.001571  -0.002293 -16.793900   0.004989  -0.001865 -28.513000  -3.877790   7.093010 -40.510700  -0.001913  -0.000854 -26.980100   0.010450  -0.000949 -27.404300  -3.743540   7.167140 -29.869600   0.008037   0.000720 -19.893200   0.001868   0.000365 -28.384100  -3.858180   7.094300 -42.935000  -0.001851   0.000444 -28.594700   0.002156  -0.001733   6.329920   3.391160   9.263240  70.499500   0.214023  -2.387170   3.185550  -0.209607  20.310000 -14.010400  -0.172293   3.695480 -51.934600  48.841700  96.583300  21.697600   0.000153  -0.005074   5.848820   0.000407  -0.005842  32.264200   1.152230   1.822770  26.413100  -0.001732   0.007429  18.489200  -0.001875   0.006348  28.530300  -2.354020  -4.321600  37.676300  -0.003098  -0.012524  25.092400   0.000443   0.002738  28.671100  -2.364670  -4.315800  40.567900  -0.002898   0.001161  27.018200  -0.002952  -0.004618  34.479100  -3.087990  -4.486460  51.900600  -0.007321  -0.004698  34.565700   0.000363   0.002340   3.788270   4.198760   0.540195   0.031335   0.406930  14.228800  -3.334170  -2.871930  -0.197141   0.000000   0.000000  -0.000000  -1.430910   4.083200  -2.542270   1.494090   0.361638 -12.584800   0.668700  -1.943180  -1.039730  -0.000000   0.000000   0.000000
 -0.102592  89.508200  -2.268210  -1.056700  -2.265220   0.234957   1.040270   3.092980  -0.366362   2.105000   6.178700  -0.790614  -2.310210  -0.576332  -0.019360  -3.796200  -1.162710   8.336550  -5.447660   0.870496  10.335800 -77.999000   8.343700  -1.166570  -0.406781   3.209540 -13.016300   5.627680  -4.011020  -4.076410  36.990300  27.624600 -52.683500 -32.569600  -0.006895   0.012128 -11.284700  -0.003434   0.002472 -29.313600  -1.448860   2.578380 -24.010600  -0.001591  -0.002355 -16.807600   0.004972  -0.001910 -28.513100  -3.877720   7.092970 -40.533800  -0.001969  -0.000908 -26.995500   0.010428  -0.000980 -27.404200  -3.743470   7.167110 -29.873900   0.008030   0.000738 -19.896100   0.001831   0.000368 -28.384600  -3.858180   7.094160 -42.932500  -0.001895   0.000401 -28.595300   0.002069  -0.001639   6.305190   3.393780   9.291560  70.408100   0.039833  -2.482150   3.103610   0.039188  21.041300 -13.667100  -0.275085   3.471520 -52.098300  48.937300  96.783000  21.554100   0.000125  -0.005112   5.777070   0.000541  -0.005891  32.248700   1.238040   1.958450  26.402500  -0.001740   0.007434  18.481800  -0.001872   0.006321  28.524500  -2.285540  -4.196500  37.529300  -0.003077  -0.012640  24.994600   0.000464   0.002719  28.671200  -2.296130  -4.190730  40.431400  -0.002890   0.001137  26.927300  -0.002929  -0.004714  34.424400  -2.999120  -4.362610  51.814700  -0.007305  -0.004782  34.508500   0.000315   0.002326   3.777510   4.235490   0.534844   0.033114   0.425352  14.231200  -3.330900  -2.882450  -0.205539  -0.000000   0.000000   0.000000  -1.440220   4.123040  -2.534410   1.494160   0.378447 -12.606800   0.676446  -1.950700  -1.034210   0.000000   0.000000   0.000000
 -0.092825  89.510900  -2.268330  -1.051460  -2.316060   0.243224   1.045370   3.123700  -0.393637   2.116960   6.239610  -0.846269  -2.294610  -0.582362  -0.019394  -3.770950  -1.175140   8.365950  -5.439990   0.878106  10.360000 -78.043200   8.366180  -1.209030  -0.403954   3.194390 -13.018100   5.629300  -4.010900  -4.077060  36.991100  27.653700 -52.703400 -32.580600  -0.007131   0.012328 -11.290300  -0.003560   0.002537 -29.339600  -1.456670   2.589520 -24.032000  -0.001614  -0.002426 -16.822400   0.004950  -0.001962 -28.513200  -3.877620   7.092930 -40.560200  -0.002030  -0.000970 -27.013100   0.010401  -0.001016 -27.404200  -3.743380   7.167080 -29.883300   0.008021   0.000758 -19.902300   0.001785   0.000373 -28.385600  -3.858170   7.094040 -42.932100  -0.001941   0.000352 -28.596400   0.001961  -0.001523   6.266520   3.413660   9.324190  70.285700  -0.191708  -2.558540   3.032390   0.400374  21.934200 -13.348500  -0.323050   3.338190 -52.512000  49.207300  97.317900  21.223700   0.000097  -0.005377   5.611870   0.000692  -0.005947  32.222800   1.407360   2.230360  26.387100  -0.001752   0.007443  18.470900  -0.001864   0.006286  28.531100  -2.147210  -3.942800  37.474300  -0.003051  -0.012754  24.957900   0.000492   0.002693  28.679900  -2.157440  -3.937220  40.377200  -0.002879   0.001108  26.891200  -0.002900  -0.004825  34.416600  -2.822570  -4.110110  51.777500  -0.007283  -0.004886  34.483700   0.000255   0.002308   3.767610   4.277000   0.531204   0.032874   0.442020  14.232200  -3.328040  -2.890140  -0.213967  -0.000000   0.000000  -0.000000  -1.451560   4.164430  -2.521980   1.494170   0.401279 -12.630900   0.687567  -1.961290  -1.029940  -0.000000   0.000000   0.000000
 -0.083296  89.514500  -2.268330  -1.046100  -2.368000   0.247788   1.051890   3.149780  -0.438582   2.132770   6.290860  -0.937225  -2.279290  -0.588852  -0.019431  -3.745900  -1.188390   8.439100  -5.431460   0.908187  10.424700 -78.103600   8.379190  -1.241680  -0.398245   3.198930 -13.017700   5.630060  -4.013530  -4.078260  36.993500  27.675900 -52.718500 -32.591500  -0.006974   0.012388 -11.295800  -0.003481   0.002603 -29.358300  -1.467690   2.607070 -24.047800  -0.001638  -0.002496 -16.833500   0.004926  -0.002013 -28.513200  -3.877520   7.092890 -40.569900  -0.002086  -0.001032 -27.019600   0.010369  -0.001051 -27.404300  -3.743290   7.167060 -29.899300   0.008012   0.000779 -19.913000   0.001733   0.000376 -28.387200  -3.858170   7.094000 -42.935800  -0.001985   0.000305 -28.598000   0.001840  -0.001393   6.206420   3.475400   9.357890  70.118800  -0.484624  -2.603090   3.037770   0.903065  22.930500 -13.170600  -0.150610   3.463970 -53.169000  49.672700  98.234400  20.729700   0.000088  -0.006096   5.364830   0.000842  -0.006015  32.176500   1.626750   2.582740  26.356600  -0.001772   0.007450  18.449500  -0.001851   0.006244  28.550000  -1.969820  -3.615250  37.583400  -0.003022  -0.012839  25.030500   0.000526   0.002660  28.694700  -1.978970  -3.610280  40.480900  -0.002862   0.001075  26.960300  -0.002866  -0.004936  34.488500  -2.603050  -3.782030  51.857300  -0.007253  -0.005002  34.536900   0.000184   0.002287   3.758620   4.329320   0.528743   0.031352   0.438525  14.232900  -3.323140  -2.887720  -0.219095   0.000000   0.000000   0.000000  -1.462240   4.214490  -2.511810   1.494620   0.407149 -12.650500   0.695659  -1.964930  -1.024060  -0.000000   0.000000   0.000000
